# xmcd
#
# Track frame offsets:
#	150
#	20150
#	22115
#	39116
#	52372
#	75655
#	92016
#	93936
#	110456
#	129878
#	130944
#	150635
#	165391
#	178931
#	195391
#
# Disc length: 2803 seconds
#
# Revision: 0
# Processed by: cddbd v1.5.2PL0 Copyright (c) Steve Scherf et al.
# Submitted via: dBpowerAMP V4.0
#
DISCID=bb0af10f
DTITLE=Makana - Different Game
DYEAR=2008
DGENRE=Alternative
TTITLE0=Away
TTITLE1=Interlude I
TTITLE2=Mars Declares
TTITLE3=Different Game
TTITLE4=Necksnap Blues
TTITLE5=So We Say Goodbye
TTITLE6=Interlude II
TTITLE7=New Love Song
TTITLE8=Reflections (throwing stones)
TTITLE9=Interlude III
TTITLE10=Flood II
TTITLE11=Home
TTITLE12=Goodnite Friend
TTITLE13=TIme of Being
TTITLE14=Shooting Star
EXTD=
EXTT0=
EXTT1=
EXTT2=
EXTT3=
EXTT4=
EXTT5=
EXTT6=
EXTT7=
EXTT8=
EXTT9=
EXTT10=
EXTT11=
EXTT12=
EXTT13=
EXTT14=
PLAYORDER=
